<?xml version="1.0" standalone="no"?>
<!DOCTYPE svg PUBLIC "-//W3C//DTD SVG 1.1//EN" "http://www.w3.org/Graphics/SVG/1.1/DTD/svg11.dtd" >
<svg xmlns="http://www.w3.org/2000/svg">
<metadata>
Created by FontForge 20120731 at Fri Mar  4 08:32:25 2016
 By Ads
</metadata>
<defs>
<font id="iconfont" horiz-adv-x="1024" >
  <font-face 
    font-family="iconfont"
    font-weight="500"
    font-stretch="normal"
    units-per-em="1024"
    panose-1="2 0 6 3 0 0 0 0 0 0"
    ascent="896"
    descent="-128"
    x-height="792"
    bbox="0 -221 1025 896"
    underline-thickness="50"
    underline-position="-100"
    unicode-range="U+0078-E617"
  />
<missing-glyph horiz-adv-x="374" 
d="M34 0v682h272v-682h-272zM68 34h204v614h-204v-614z" />
    <glyph glyph-name=".notdef" horiz-adv-x="374" 
d="M34 0v682h272v-682h-272zM68 34h204v614h-204v-614z" />
    <glyph glyph-name=".null" horiz-adv-x="0" 
 />
    <glyph glyph-name="nonmarkingreturn" horiz-adv-x="341" 
 />
    <glyph glyph-name="x" unicode="x" horiz-adv-x="1001" 
d="M281 543q-27 -1 -53 -1h-83q-18 0 -36.5 -6t-32.5 -18.5t-23 -32t-9 -45.5v-76h912v41q0 16 -0.5 30t-0.5 18q0 13 -5 29t-17 29.5t-31.5 22.5t-49.5 9h-133v-97h-438v97zM955 310v-52q0 -23 0.5 -52t0.5 -58t-10.5 -47.5t-26 -30t-33 -16t-31.5 -4.5q-14 -1 -29.5 -0.5
t-29.5 0.5h-32l-45 128h-439l-44 -128h-29h-34q-20 0 -45 1q-25 0 -41 9.5t-25.5 23t-13.5 29.5t-4 30v167h911zM163 247q-12 0 -21 -8.5t-9 -21.5t9 -21.5t21 -8.5q13 0 22 8.5t9 21.5t-9 21.5t-22 8.5zM316 123q-8 -26 -14 -48q-5 -19 -10.5 -37t-7.5 -25t-3 -15t1 -14.5
t9.5 -10.5t21.5 -4h37h67h81h80h64h36q23 0 34 12t2 38q-5 13 -9.5 30.5t-9.5 34.5q-5 19 -11 39h-368zM336 498v228q0 11 2.5 23t10 21.5t20.5 15.5t34 6h188q31 0 51.5 -14.5t20.5 -52.5v-227h-327z" />
    <glyph glyph-name="uniE600" unicode="&#xe600;" horiz-adv-x="1000" 
d="M347 -25l-249 -83l123 142q-134 87 -174 225q-14 48 -14 97q0 111 64.5 204.5t175.5 148t242 54.5q79 0 152.5 -20.5t132.5 -58t104 -87.5t69.5 -112.5t24.5 -128.5q0 -82 -38.5 -157.5t-103 -130t-154 -86.5t-187.5 -32q-87 0 -168 25zM298 425q-25 0 -42 -17.5
t-17 -42.5q0 -12 4.5 -23t12.5 -19t19 -12.5t23 -4.5t23 4.5t19 12.5t12.5 19t4.5 23q0 25 -17 42.5t-42 17.5zM732 425q-24 0 -41.5 -17.5t-17.5 -42t17.5 -42t41.5 -17.5q12 0 23 4.5t19 12.5t13 19t5 23q0 25 -17.5 42.5t-42.5 17.5zM515 425q-24 0 -41.5 -17.5
t-17.5 -42t17.5 -42t41.5 -17.5q12 0 23 4.5t19 12.5t12.5 19t4.5 23t-4.5 23t-12.5 19t-19 13t-23 5z" />
    <glyph glyph-name="uniE601" unicode="&#xe601;" horiz-adv-x="1000" 
d="M676 471q9 0 17 -0.5t17 -1.5q-15 70 -66 126t-126.5 88t-160.5 32q-147 0 -250 -88q-100 -88 -100 -210q0 -70 36 -129.5t104 -106.5l-35 -106l122 62q6 -1 24.5 -5t26 -5.5t22 -3.5t26 -3t24.5 -1q15 0 33 2q-11 37 -11 73q0 115 86.5 196t210.5 81zM486 573
q11 0 21 -4.5t17 -11.5t11.5 -17t4.5 -21t-4.5 -21t-11.5 -17.5t-17 -11.5t-21 -4q-15 0 -27.5 7t-19.5 19.5t-7 27.5q0 22 15.5 38t38.5 16zM241 464q-23 0 -38.5 15.5t-15.5 38t15.5 38.5t38 16t38.5 -16t16 -38q0 -6 -1.5 -12.5t-4 -11.5t-6.5 -10t-8.5 -8.5t-10 -6
t-11.5 -4t-12 -1.5zM994 197q0 68 -41.5 127t-110 93t-146.5 34q-35 0 -68.5 -6.5t-63 -19t-55.5 -30t-46 -39.5t-34.5 -47t-22.5 -53.5t-8 -58.5q0 -105 87 -179.5t211 -74.5q35 0 105 18l96 -53l-26 87q123 92 123 202zM605 236q-8 0 -15 3t-12.5 8.5t-8.5 12.5t-3 15
q0 10 5 19t14 14t19.5 5t19.5 -5t14 -14t5 -19q0 -16 -11 -27.5t-27 -11.5zM797 234q-16 0 -27 11.5t-11 27.5t11 27t27 11q5 0 9 -1t8 -3t7.5 -4.5t6 -6t4.5 -7t3 -8t1 -8.5q0 -8 -3 -15.5t-8.5 -12.5t-12.5 -8t-15 -3z" />
    <glyph glyph-name="uniE602" unicode="&#xe602;" 
d="M62 451v149q0 13 9.5 22.5t22.5 9.5h833q13 0 22.5 -9.5t9.5 -22.5v-149h-897zM959 312v-309q0 -4 -1 -8.5t-3.5 -8t-5 -6t-6.5 -5t-8 -3.5t-8 -1h-833q-9 0 -16.5 4.5t-11.5 11.5t-4 16v309h897z" />
    <glyph glyph-name="uniE603" unicode="&#xe603;" horiz-adv-x="1025" 
d="M547 -102v465h-34v-465l-123 123l-24 -25l164 -164l164 164l-24 25zM838 500v2v4v2q0 110 -77.5 187.5t-186.5 77.5q-78 0 -142 -41.5t-97 -109.5q-29 14 -61 14q-50 0 -88 -32t-47 -81q-40 -14 -71 -42.5t-49 -68t-18 -83.5q0 -85 60 -144.5t145 -60.5h205v35h-205
q-71 0 -121 50t-50 120q0 55 32 99.5t84 62.5l19 6l3 20q6 37 34.5 61t66.5 24q24 0 46 -11l31 -15l15 31q19 40 51 69.5t72.5 45.5t84.5 16q95 0 162.5 -67.5t67.5 -162.5v-2v-5l-1 -35h35q41 0 76.5 -21t56 -56t20.5 -77q0 -63 -45 -108t-108 -45h-8h-181v-35h189
q78 1 132.5 56t54.5 132q0 51 -25 94t-68 68.5t-94 25.5z" />
    <glyph glyph-name="uniE604" unicode="&#xe604;" 
d="M61 896l82 -922l368 -102l370 103l82 921h-902zM785 595h-433l10 -116h412l-31 -347l-232 -64l-231 64l-16 177h114l8 -90l125 -34h1l126 34l13 147h-392l-30 342h566z" />
    <glyph glyph-name="uniE605" unicode="&#xe605;" 
d="M934 -4l-176 177l23 23l-23 24l-71 -71l-118 118l142 142q14 -5 28.5 -7.5t29.5 -2.5q73 0 124 51q25 25 38.5 57.5t13 67.5t-14.5 68l-10 23l-76 -76l-61 -1l1 58l77 78l-22 10q-33 14 -70 14q-35 0 -67 -13t-56 -38q-36 -36 -47 -85.5t6 -97.5l-142 -142l-200 201
l24 24l-130 129l-70 -71l129 -129l24 23l200 -200l-142 -142q-9 4 -19 6t-20 3t-20 1q-72 0 -123 -51q-38 -38 -48 -90.5t11 -102.5l10 -23l77 78h59l-1 -61l-76 -76l22 -9q34 -15 70 -15q72 0 123 51q36 37 47 86t-6 97l142 142l117 -118l-70 -71l23 -24l24 24l176 -177
q8 -8 17.5 -13.5t20 -8t21.5 -2.5t21.5 2.5t20 8t17.5 13.5q16 16 22 37.5t0 43t-22 37.5zM216 574l-82 82l23 24l83 -82zM365 110l4 -11q18 -40 9.5 -82.5t-38.5 -73.5q-42 -41 -100 -41q-17 0 -32 3l49 49l1 109l-106 -1l-50 -51q-9 36 1 71t36 62q42 41 100 41
q15 0 29 -3t28 -9l10 -4l338 338l-4 11q-12 26 -12.5 54.5t10.5 55t31 46.5q42 42 100 42q8 0 16 -1t16 -3l-50 -51l-2 -106l109 2l49 49q8 -36 -1.5 -71t-36.5 -61q-41 -42 -100 -42q-29 0 -56 12l-10 4zM911 -98q-2 -2 -4.5 -4t-5 -3.5t-5.5 -2.5l-4 -2q-3 -1 -5.5 -1.5
t-5.5 -1t-6 -0.5q-10 0 -19 4t-16 11l-177 177l71 70l177 -177q14 -14 14 -35t-14 -35z" />
    <glyph glyph-name="uniE606" unicode="&#xe606;" 
d="M882 410q-33 124 -135.5 204t-234.5 80t-234.5 -80t-135.5 -204q-64 -32 -103 -93t-39 -135q0 -106 75 -181t181 -75h256q-9 0 -17 2.5t-15 6.5t-13 10l-128 128q-6 6 -10 13t-6.5 15t-2.5 17q0 27 18.5 45.5t45.5 18.5q7 0 13 -1t12 -3.5t11 -6t9 -8.5l19 -18v165
q0 27 19 45.5t45 18.5q17 0 32 -8.5t23.5 -23t8.5 -32.5v-165l19 18q9 9 20.5 14t24.5 5q27 0 45.5 -18.5t18.5 -45t-19 -45.5l-128 -128q-6 -6 -13 -10t-15 -6.5t-17 -2.5h256q106 0 181 75t75 181q0 30 -6.5 58.5t-19 53.5t-30 46.5t-39 39t-47.5 30.5z" />
    <glyph glyph-name="uniE607" unicode="&#xe607;" 
d="M511 463q-66 0 -112.5 -46.5t-46.5 -112.5t46.5 -112.5t112.5 -46.5t112.5 46.5t46.5 112.5q0 26 -8 50t-23 44t-34.5 34.5t-43.5 22.5t-50 8zM925 336h-32h-2q-11 139 -110 238t-238 111v1v32q0 13 -9.5 22.5t-22.5 9.5q-7 0 -12.5 -2.5t-10 -7t-7 -10.5t-2.5 -12v-32
v-1q-69 -6 -130.5 -35.5t-107.5 -75.5t-75.5 -108t-35.5 -130h-1h-32q-13 0 -22.5 -9.5t-9.5 -22.5q0 -7 2.5 -12.5t7 -10t10.5 -7t12 -2.5h32h1q12 -139 111 -238t238 -111v-1v-32q0 -13 9.5 -22.5t22.5 -9.5t22.5 9.5t9.5 22.5v32v1q91 8 168.5 55.5t125 125t54.5 168.5h1
h1h32q13 0 22 9.5t9 22.5t-9 22.5t-22 9.5zM511 -15q-132 0 -225.5 93.5t-93.5 225.5t93.5 225t225.5 93t225 -93t93 -225q0 -87 -42.5 -160t-116 -116t-159.5 -43z" />
    <glyph glyph-name="uniE608" unicode="&#xe608;" 
d="M940 35q76 121 76 266q0 102 -40 195.5t-107.5 160.5t-160.5 107t-195.5 40t-195.5 -40t-160.5 -107.5t-107.5 -160.5t-40 -195.5t40 -195.5t107.5 -160.5t160.5 -107.5t195 -40q111 0 212 47l4 2q13 6 13 20q0 10 -6.5 16.5t-16.5 6.5l-12 -3q-30 -14 -61 -23.5
t-64.5 -14.5t-67.5 -5q-94 0 -178.5 36t-146 97.5t-97.5 146t-36 178t36 178t97.5 146t146 97.5t178 36t178 -36t146 -97.5t97.5 -146t36 -178.5q0 -119 -58 -222q-22 12 -54.5 29.5t-66 36t-65.5 36t-62 34.5t-47 26q19 27 32.5 50t30 53t26.5 46q7 12 -1 22q-3 4 -8.5 5.5
t-9.5 1.5h-4h-143v46h210q1 0 2 0.5t4.5 2t6 4t4.5 7t2 10.5t-2 10.5t-4.5 6.5t-5.5 3.5t-5 1.5h-2h-210v74q0 2 -0.5 5t-6.5 7.5t-15 4.5t-15 -4t-8 -9l-1 -4v-74h-209h-1q-1 0 -3 -0.5t-3.5 -1t-3.5 -2.5t-3.5 -4t-2.5 -5.5t-1 -8.5q0 -9 4.5 -15t8.5 -7l5 -2h209v-46
h-165q-2 0 -5 -0.5t-8 -6.5t-5 -15t4.5 -15t9.5 -7l4 -2h303q-42 -84 -63 -110q-1 0 -6 2t-13 5.5t-18.5 7t-24.5 8t-28 8.5t-31 7.5t-34 6.5q-84 13 -136.5 -22.5t-52.5 -99.5q0 -20 5 -38.5t16.5 -39.5t38 -35.5t64.5 -17.5q148 -17 235 140q59 -24 309 -171q11 -7 19 -7
q17 0 28 19zM354 100q-61 7 -80 55q-17 45 14 81q40 44 119 29q41 -8 73 -18.5t64 -25.5q-45 -72 -90 -99t-100 -22zM512 -211q-103 0 -198 40.5t-163.5 109t-109 163.5t-40.5 198.5t40.5 198.5t109 163.5t163.5 109t198.5 40.5t198.5 -40.5t163.5 -109t109 -163
t40.5 -198.5q0 -148 -77 -271q-13 -22 -35 -22q-8 0 -24 8l-16 9q-221 131 -285 159q-89 -155 -239 -138q-34 3 -59 15t-38 27t-21 34.5t-10.5 33.5t-2.5 29q0 54 36 90q17 18 42.5 28.5t55.5 13.5t64 -2q82 -14 151 -43q20 25 51 89l2 3h-290q-9 2 -17.5 9.5t-8.5 22.5
q0 11 5 18t10 9.5t11 2.5h157v30h-201q-10 2 -18 9.5t-8 22.5t8 22.5t17 8.5h202v65q1 9 9 17t23 8t22.5 -8t7.5 -17v-65h202q3 -1 6 -1.5t6 -2t6 -4t5 -6t3 -8t1 -9.5q0 -10 -4.5 -17.5t-10 -10.5t-11.5 -4h-203v-30h135h3h4q3 0 5 -0.5t4.5 -1.5t4.5 -2t4 -2.5t3 -3.5
q6 -7 6.5 -15t-4.5 -16q-11 -18 -26 -46q-32 -57 -59 -96l18 -10q9 -5 24 -13t21.5 -11.5t26.5 -15.5q43 -23 69.5 -38t62 -34.5t59.5 -31.5q53 99 53 211q0 74 -22.5 142.5t-64.5 123.5t-97 97t-123.5 64.5t-142.5 22.5q-91 0 -174 -35.5t-143.5 -96t-96 -143.5
t-35.5 -174.5t35.5 -174.5t96 -143.5t143.5 -96t174 -35.5q98 0 186 40l5 2q9 4 15 4q13 0 22 -9t9 -22q0 -19 -18 -28l-3 -2q-26 -11 -52.5 -20t-53 -15t-54.5 -9t-56 -3zM512 796q-100 0 -192 -39.5t-158 -105.5t-105.5 -158t-39.5 -192.5t39.5 -192.5t105.5 -158
t158 -105.5t192 -39.5q109 0 209 46l2 1q10 5 10 14q0 6 -4.5 10.5t-10.5 4.5q-1 0 -4 -1v-2h-6q-93 -43 -196 -43q-94 0 -180.5 37t-148.5 99t-99 148.5t-37 181t37 181t99 148.5t148.5 99t181 37t181 -37t148.5 -99.5t99 -148.5t37 -181q0 -121 -59 -226l-2 -5l-9 2
q-15 7 -34.5 18t-36.5 20t-42.5 23.5t-41 23t-43.5 23.5q-73 41 -97 54l-8 4l5 7q14 20 26 39.5t18.5 31t18.5 32.5q1 1 2 4q15 27 24 42q4 7 -1 13q-3 4 -14 4h-152v62h218q11 5 11 16q0 13 -12 14h-217v82q0 1 -1 3t-4.5 4t-8.5 2q-14 0 -16 -10v-81h-217q-1 0 -2.5 -0.5
t-3 -1.5t-2.5 -4.5t-1 -7.5q0 -6 2.5 -10t4.5 -5t3 -1h216v-62h-173q-1 0 -3 -0.5t-4.5 -4t-2.5 -9.5q0 -14 12 -16h314l-13 -26q-6 -13 -9 -19t-8.5 -16.5t-9.5 -17t-9 -15t-10 -16t-11 -13.5l-4 -6l-6 4q-5 2 -23.5 9t-56 18t-72.5 17q-47 7 -86 -2t-63 -34
q-31 -31 -31 -78q0 -19 4.5 -36.5t16 -37t36 -33t59.5 -15.5l28 -2q124 0 200 137l3 6l7 -2q61 -26 294 -163l16 -9q2 -2 7 -4t8 -2q6 0 11 3t10 12q75 119 75 262q0 80 -25 155.5t-71 136.5t-107 107t-136.5 71t-156.5 25zM372 91q-4 0 -8.5 0.5t-9.5 0.5q-47 5 -71 33.5
t-22 63.5t30.5 61.5t78.5 26.5q6 0 12 -0.5t13 -1.5t13 -2q78 -15 139 -45l8 -4l-4 -7q-21 -33 -41 -56.5t-42 -39t-45.5 -23t-50.5 -7.5zM370 260q-30 0 -51 -10.5t-31 -26.5t-11 -35q-1 -29 19 -52.5t59 -27.5q9 -1 17 -1q47 0 85 26.5t75 84.5q-29 13 -59 22.5t-68 16.5
q-18 3 -35 3z" />
    <glyph glyph-name="uniE609" unicode="&#xe609;" 
d="M703 709h-382q-26 0 -48 -11.5t-35 -32t-13 -43.5v-644q0 -36 28 -61.5t68 -25.5h382q40 0 68 25.5t28 61.5v644q0 23 -13 43.5t-35 32t-48 11.5zM512 -65q-24 0 -41 15.5t-17 38t17 38.5t41 16t41 -16t17 -38q0 -34 -33 -49q-13 -5 -25 -5zM741 98h-458v533h458v-533z
M741 98z" />
    <glyph glyph-name="uniE60A" unicode="&#xe60a;" 
d="M783 252h-8q-43 29 -94 48h-1q20 14 36 31.5t29 37.5t22 42t14 46.5t5 50.5q0 106 -75.5 182t-182.5 76t-182.5 -76t-75.5 -182q0 -43 13.5 -82.5t37.5 -71.5t57 -56q-198 -71 -269 -276q-29 -84 -29 -152h64l11 60q43 181 167 265q87 59 206 59q18 0 35 -1.5t33 -4
t31 -6t28.5 -8.5t26.5 -10q-42 -26 -66.5 -69.5t-24.5 -94.5q0 -39 15 -74.5t40.5 -61t61.5 -41t75 -15.5q11 0 22.5 1.5t22 4t21 6.5t20.5 9t19 10.5t17 12.5q35 30 53 71q16 37 16 77q0 80 -56 136t-135 56zM528 313q-80 0 -137 57t-57 137.5t57 137.5t137 57
q39 0 75 -15.5t62 -41.5t41.5 -62t15.5 -75q0 -81 -57 -138t-137 -57zM748 -65q-32 34 -68 59.5t-63 33.5l85 45l41 -69q1 3 3.5 8t11.5 20.5t19 30t25.5 34.5t32 36t37.5 32t43 25q-1 -7 -3 -23.5t-2.5 -25t1.5 -22.5t9 -26q-32 -7 -89 -61.5t-83 -96.5z" />
    <glyph glyph-name="uniE60B" unicode="&#xe60b;" 
d="M560 393q-46 -23 -83 -58t-63 -78.5t-38 -94t-9 -105.5q1 -16 3.5 -31.5t6.5 -30.5t9 -29.5t11.5 -28t13.5 -26.5t16 -26l-25 -1q-14 -1 -29.5 -1.5t-33.5 -1.5h-74l-76 2q-37 2 -68 4q-16 2 -29 3t-24 3q-21 3 -27 7q-11 7 -18.5 45t-2.5 99q2 23 12.5 39t26.5 27.5
t35.5 19.5t40.5 15.5t40.5 16t35.5 19.5q9 7 16 13t12 13q10 12 14 23q4 12 3 24q0 6 -1 12.5t-2 13.5q-3 22 -17 33.5t-30 23.5q-4 3 -8 7t-7 10q-7 11 -12 23q-6 13 -12 28q-3 0 -6.5 1.5t-6.5 3.5q-2 2 -4 3.5t-4 4t-5 4.5q-2 2 -3.5 4.5t-3 5.5t-3 6.5t-3.5 7.5
q-5 15 -5 28v6q0 2 0.5 4t1 4.5t1 4.5t1.5 5q3 10 10 20q-2 35 -1 70q1 10 2 20.5t2.5 21.5t4.5 23q7 35 24 63q17 27 37 45t43 28q11 6 22 10t22.5 6.5t22.5 4t21 1.5q9 1 18 1t18 -0.5t18 -2.5q27 -4 50.5 -12.5t42.5 -20.5t30 -24q26 -28 39.5 -63t20.5 -67q8 -36 10 -74
q7 -4 11 -11l4 -8q2 -4 3 -9q3 -10 3 -25q-1 -20 -6 -32q-3 -6 -6 -11t-6 -8q-8 -8 -17 -11l-2 -4v-4q-1 -2 -1 -5l-4 -13q-1 -6 -3 -14v0zM694 372q30 3 58.5 -1t56.5 -14q55 -19 97 -56t68.5 -89t31 -112t-15 -114.5t-56 -97t-88 -69t-112.5 -30.5t-115 14q-14 5 -27 11
t-25 13t-23.5 15t-21.5 18q-42 37 -69 88.5t-31 111.5q-2 30 1.5 58.5t13.5 56.5q20 55 56 97q18 21 40.5 38.5t47.5 30.5q52 27 113 31v0zM880 149q5 19 -7 33.5t-30 19.5t-35 -1q-17 -7 -24 -30q-2 -9 -4 -16l-2 -14q-2 -7 -3.5 -14.5t-3.5 -14.5q-3 -15 -8 -32.5
t-12 -40.5q-3 -8 -6.5 -13.5t-8.5 -8.5t-10 -3q-17 1 -28 19q-6 8 -11.5 18t-10.5 20l-20 40q-5 10 -9 19t-8 17t-7 15t-6 11q-8 15 -25.5 15.5t-33.5 -7.5q-5 -3 -9.5 -6.5t-8.5 -7.5t-7 -10q-10 -15 -1 -32q8 -19 17.5 -41t21.5 -46q5 -11 10 -22.5t10 -23.5
q10 -23 18 -38q16 -35 45.5 -50.5t60.5 -14.5q16 1 30.5 5.5t27.5 12.5q28 17 39 48q8 25 17 51q8 27 17 53q8 26 14 50q4 11 6.5 21.5t4.5 18.5v0zM880 149z" />
    <glyph glyph-name="uniE60C" unicode="&#xe60c;" 
d="M488 611h64q4 1 5 5q0 5 -5 5h-64q-2 0 -3.5 -1.5t-1.5 -3.5q0 -5 5 -5zM519 179q-4 0 -8 -2t-6.5 -4.5t-4.5 -6.5t-2 -8q0 -8 6.5 -14t14.5 -6q6 0 11 2.5t7.5 7t2.5 10.5t-2.5 10.5t-7.5 7.5t-11 3zM393 590h252v-390h-252v390zM514 852q-96 0 -182.5 -37t-149 -100
t-99.5 -149.5t-37 -181.5t37 -182t99.5 -149.5t149 -99.5t182 -37t182 37t149.5 99.5t100 149.5t37 182q0 76 -24 147.5t-67 129t-100.5 101t-129 67t-147.5 23.5zM689 173q0 -24 -17.5 -41t-41.5 -17h-221q-24 0 -41.5 17t-17.5 41v422q0 24 17.5 41t41.5 17h221
q8 0 15.5 -2t14 -6t12 -9.5t9.5 -11.5t6 -13.5t2 -15.5v-422z" />
    <glyph glyph-name="uniE60D" unicode="&#xe60d;" 
d="M488 597h60q2 0 3.5 1.5t1.5 3.5t-1.5 3.5t-3.5 1.5h-60q-5 0 -5 -5t5 -5zM517 191q-8 0 -14 -5.5t-6 -13.5t6 -13.5t14 -5.5t14 5.5t6 13.5t-6 13.5t-14 5.5zM399 578h236v-367h-236v367zM512 823q-51 0 -100.5 -11.5t-93 -33t-81.5 -51.5t-68 -68t-51.5 -81.5t-33 -93
t-11.5 -100.5q0 -89 34.5 -170.5t93.5 -140.5t140.5 -93.5t170.5 -34.5q60 0 117 15.5t105 44t88.5 69t69 88.5t44 105t15.5 117t-15.5 117t-44 105t-69 88.5t-88.5 69t-105 44t-117 15.5zM677 186q0 -23 -16.5 -39t-39.5 -16h-207q-11 0 -21.5 4.5t-18 12t-12 17.5t-4.5 21
v396q0 22 16.5 38.5t39.5 16.5h207q23 0 39.5 -16.5t16.5 -38.5v-396z" />
    <glyph glyph-name="uniE60E" unicode="&#xe60e;" 
d="M1024 195v504q0 54 -26.5 99t-71.5 71.5t-99 26.5h-630q-54 0 -99 -26.5t-71.5 -71.5t-26.5 -99v-630q0 -82 57.5 -139.5t139.5 -57.5h630q24 0 47 5.5t43 16t37.5 25t30.5 32.5t22.5 39t13.5 44q-286 124 -396 177q-72 -87 -148.5 -130.5t-177.5 -43.5q-105 0 -169 56.5
t-56 137.5q3 20 8.5 38.5t17 40t32 38t47.5 30t68.5 18.5t91.5 0q23 -2 43 -4.5t39.5 -7t33 -7t34 -9t30.5 -9.5t34.5 -11.5t35.5 -11.5q18 32 32 67t25 72h-398v39h197v71h-240v43h240v102l5 11q6 5 15 5h98v-118h256v-43h-256v-71h209q-29 -115 -85 -213q17 -6 58 -19
t87.5 -27.5t89.5 -28.5l73 -22l29 -9v0zM283 104q-30 0 -56 5.5t-43 14.5t-31 20.5t-20.5 24.5t-11.5 25.5t-4.5 24t1.5 20.5q7 34 42 62t92 28q48 0 94 -8.5t92 -24.5t98 -41q-55 -72 -119.5 -111.5t-133.5 -39.5v0zM283 104z" />
    <glyph glyph-name="uniE60F" unicode="&#xe60f;" 
d="M473 464h-265q-8 0 -14.5 -4.5t-8.5 -12.5l-51 -176l357 -39l28 134q-29 51 -46 98zM806 197l107 -11l-32 110q-5 -7 -13 -18q-15 -22 -30.5 -42t-31.5 -39zM66 33q-4 -11 3.5 -20.5t19.5 -9.5h354l33 158l-362 40zM66 33zM935 111l-387 42l-32 -150h418q7 0 12.5 3
t8.5 8.5t3 12.5q0 4 -1 8zM935 111zM721 734q60 0 102.5 -42t42.5 -102q0 -39 -19.5 -72.5t-52.5 -53t-73 -19.5q-59 0 -101.5 42.5t-42.5 102.5q0 39 19.5 72.5t52.5 52.5t72 19zM712 167q4 -4 9 -4q6 0 10 4q23 24 51.5 58t56.5 74q119 167 119 288q0 48 -18.5 92
t-50.5 75.5t-75.5 50t-92.5 18.5q-97 0 -166.5 -69t-69.5 -167q0 -68 34.5 -143t84.5 -146q49 -69 108 -131z" />
    <glyph glyph-name="uniE610" unicode="&#xe610;" 
d="M889 0h-758q-28 0 -48 22.5t-20 54.5v366h894v-366q0 -47 -37 -68q-15 -9 -31 -9zM367 171l-4 -17h-1l-4 17l-51 155q-4 13 -18 13q-10 0 -15.5 -8t-2.5 -17l69 -193q4 -13 18 -13h10q13 0 18 13l68 193q4 9 -2 17t-16 8q-6 0 -11 -3.5t-7 -9.5zM490 320v-192
q0 -4 1.5 -7.5t4 -6.5t6.5 -4.5t7 -1.5q4 0 6.5 1t5 3t4.5 4.5t3 5t1 6.5v192q0 4 -1.5 7.5t-4 6t-6.5 4t-8 1.5q-2 0 -4.5 -0.5t-4.5 -2.5l-4 -2q-2 -2 -3 -4t-2 -4.5t-1 -5.5zM730 320q-21 19 -60 19h-65q-7 0 -12 -3t-8 -8t-3 -11v-189q0 -8 5.5 -14t13.5 -6q3 0 6 1
t5.5 3t4 4.5t2.5 5t1 6.5v68h50q39 0 60.5 19.5t21.5 52.5q0 32 -22 52zM670 227h-50v81h50q22 0 32.5 -11.5t10.5 -29t-10.5 -29t-32.5 -11.5zM63 686q0 32 20 54.5t48 22.5h758q28 0 48 -22.5t20 -54.5v-111h-894v111zM63 686z" />
    <glyph glyph-name="uniE611" unicode="&#xe611;" 
d="M512 467q-23 0 -42 -11t-30 -30t-11 -42q0 -17 6.5 -32.5t17.5 -26.5t26.5 -17.5t32.5 -6.5q34 0 58.5 24.5t24.5 58.5q0 17 -6.5 32.5t-17.5 26.5t-26.5 17.5t-32.5 6.5zM512 338q-13 0 -23.5 6t-16.5 16.5t-6 23.5q0 19 13.5 32.5t32.5 13.5t32.5 -13.5t13.5 -32.5
q0 -8 -2.5 -15t-6.5 -12.5t-9.5 -9.5t-12.5 -6.5t-15 -2.5zM512 550q-45 0 -83 -22.5t-60.5 -60.5t-22.5 -83q0 -69 48.5 -117.5t117.5 -48.5t117.5 48.5t48.5 117.5q0 23 -6 44.5t-16.5 39.5t-26 33.5t-33.5 26t-39.5 16.5t-44.5 6zM512 269q-48 0 -81.5 33.5t-33.5 81.5
q0 31 15.5 57.5t42 42t57.5 15.5q19 0 36.5 -5.5t31.5 -16.5t25 -25t16.5 -31.5t5.5 -36.5q0 -48 -33.5 -81.5t-81.5 -33.5zM512 830q-61 0 -118.5 -16t-106.5 -44.5t-90.5 -70t-70 -90.5t-44.5 -106.5t-16 -118.5q0 -91 35.5 -173.5t95 -142t142 -95t173.5 -35.5
t173.5 35.5t142 95t95 142t35.5 173.5q0 73 -22.5 141t-63.5 123t-96 96t-123 63.5t-141 22.5zM512 157q-94 0 -160.5 66.5t-66.5 160.5t66.5 160.5t160.5 66.5t160.5 -66.5t66.5 -160.5q0 -31 -8 -60.5t-22.5 -54.5t-35.5 -46t-46 -35.5t-54.5 -22.5t-60.5 -8z" />
    <glyph glyph-name="uniE612" unicode="&#xe612;" 
d="M670 417h-315v-225h315v225zM501 247l-66 49l21 27l42 -33l77 78l23 -23zM512 832q-91 0 -174 -35.5t-143 -95.5t-95.5 -143t-35.5 -174t35.5 -174t95.5 -143t143 -95.5t174 -35.5q61 0 119 16.5t107 45t90.5 70t70 90.5t44.5 107t16 119q0 41 -7 80.5t-20.5 76t-33 70
t-44.5 62.5t-54 53.5t-62.5 44t-69.5 33.5t-76 21t-80 7zM704 160h-385v352h385v-352zM767 282h-32v262h-313v64h345v-326zM670 480h-67v-32h67v32zM512 480h-32v-32h32v32zM575 480h-31v-32h31v32z" />
    <glyph glyph-name="uniE613" unicode="&#xe613;" 
d="M512 730q0 4 -1 7t-3 5.5t-4.5 4.5t-5.5 3t-6 1q-6 0 -11 -2.5t-7.5 -7.5t-2.5 -10v-11v-215q0 -41 -41 -41t-41 41v236l-41 10l-41 -10v-236q0 -41 -41 -41t-41 41v215v11q0 8 -6 14t-15 6q-5 0 -10 -2.5t-7.5 -7.5t-2.5 -10v-21q-41 -194 -41 -287q0 -18 17 -41
t53 -45.5t82 -31.5l-28 -361q-1 -7 -1 -13q0 -17 6.5 -32t17.5 -26t26 -17.5t32 -6.5q13 0 25.5 4t23 11.5t18 18t11.5 23t4 25.5q0 6 -1 13l-28 361q34 7 64 21.5t48.5 31.5t29 34.5t10.5 30.5q0 92 -41 287v4v8v8zM881 382q-1 119 -41.5 212.5t-87.5 136.5q-12 20 -35 20
q-11 0 -20.5 -5.5t-15 -15t-5.5 -20.5v-41v-738h4q-2 -3 -2 -7l-2 -6v-8q0 -25 18 -43t43.5 -18t43.5 18t18 43q0 6 -1 11l-2 10h3v205q2 0 5 0.5t11.5 2.5t16 5.5t17 10t16.5 14.5t11.5 21t4.5 28v164v0z" />
    <glyph glyph-name="uniE614" unicode="&#xe614;" 
d="M1021 100v501q0 82 -57 139t-139 57h-626q-82 0 -139 -57t-57 -139v-626q0 -54 26 -99t71 -71t99 -26h626q72 0 126.5 46t66.5 115q-270 116 -394 176q-71 -87 -147 -130t-177 -43q-104 0 -168 56t-55 137q2 19 7.5 37.5t17 40t31.5 38t47.5 29.5t68.5 18t91 1
q26 -3 51.5 -7t40 -6.5t41.5 -10.5t34 -9.5t41.5 -13.5t40.5 -13q6 12 12.5 25.5t12.5 27t11.5 27.5t10.5 28.5t9 29.5h-396v39h196v71h-239v43h239v102l5 10q7 5 15 5h98v-117h255v-43h-255v-71h208q-29 -115 -85 -211q13 -5 38 -13t55.5 -17.5t64 -20.5t65 -20.5t57 -17.5
t40.5 -13l15 -4v0zM285 10q-36 0 -65 7t-46 18.5t-30 26t-17.5 29.5t-7 28.5t0.5 23.5q7 34 42 62t92 28q130 0 282 -74q-54 -71 -119 -110t-132 -39v0zM285 10z" />
    <glyph glyph-name="uniE615" unicode="&#xe615;" 
d="M588 226q-76 -61 -104 -77q-32 -19 -67 -30q-30 -9 -53 -11.5t-38 -3.5q-2 -1 -4 -1h-11q-20 0 -38.5 2.5t-35.5 7.5q-35 9 -61 27t-41 45.5t-15 64.5q1 31 17.5 57t42.5 44t58 27t64 8t61 -7.5t56 -15t51 -18.5t46 -19l4 -2q2 -1 4.5 -2t4.5 -1.5t4 -1.5q10 -4 20 -7
q21 26 35 51.5t23.5 46.5t14.5 35.5t6 19.5h-310v35h146v79h-204v35h204v64q0 6 7 10q4 2 8 3.5t9 2.5q11 2 24 2h55v-82h210v-35h-210v-79h167v0v0q-5 -32 -17 -68q-10 -30 -29.5 -69.5t-52.5 -81.5q4 -1 10 -4t26.5 -11.5t42 -17t53.5 -19.5t63.5 -20.5t69.5 -18.5t73 -15
q45 100 45 210q0 69 -18.5 135t-51 122t-80 103t-103 80t-122 51.5t-135.5 18.5q-104 0 -198.5 -40.5t-162.5 -109t-108.5 -163t-40.5 -198t40.5 -198t108.5 -163t162.5 -108.5t198.5 -40q129 0 240 59.5t181 161.5q-66 15 -142 44t-203 86zM187 249q-1 -25 9.5 -43.5
t24.5 -28t32 -15t28 -7t18 -1.5q15 0 29.5 1.5t26.5 5t24.5 8.5t22.5 10t20 11q5 3 10 7l12 8q5 4 10 9l12 8q5 5 10 9.5t9.5 8.5t8.5 7.5t7 6t5 4t2 2.5q3 2 5 5q-20 11 -40 21q-92 44 -142 49q-40 4 -70 -4.5t-45 -24.5t-22 -30.5t-7 -26.5z" />
    <glyph glyph-name="uniE616" unicode="&#xe616;" 
d="M760 371v103q0 5 -0.5 14t-5 34t-13 48t-26.5 50.5t-42.5 47.5t-64.5 34t-89 14q-166 0 -222 -143q-20 -52 -20 -99v-103h-104v-484h691v484h-104zM553 104v-113h-69v113q-34 20 -34 59q0 12 3.5 22.5t9.5 19t14.5 15t19 10t22.5 3.5q28 0 48.5 -20.5t20.5 -49.5
q0 -39 -35 -59zM691 371h-345v103q0 14 2 29.5t12.5 43t27.5 48t51 36.5t79.5 16t80 -16t51.5 -36.5t27 -48t12 -43t2 -29.5v-103z" />
    <glyph glyph-name="uniE617" unicode="&#xe617;" 
d="M592 230q0 -18 7 -30q3 -6 8 -10.5t8 -6.5t12 -7l11 -5q8 -4 23.5 -11t22.5 -11l64 -31q12 -6 36.5 -17.5t36.5 -17.5l5 -3q3 -1 4 -2q2 0 5 -1q7 -4 12 -9q3 -4 4 -9.5t1 -12.5v-47h-680v47q0 14 6 22l7 6q3 2 8 4.5t11.5 5.5t7.5 3q5 3 18 9t19 9q2 1 3.5 1.5t3 1.5
t2.5 2q10 4 28.5 13t27.5 13q29 15 37 18l46 22q1 1 4.5 2.5t5 2.5t4 2.5t4 2.5t3.5 2.5t3.5 3t3 4t3.5 5.5q9 16 5 34.5t-19 30.5q-3 2 -6 5t-5 6l-15 19q-3 4 -5.5 8t-4.5 8t-4.5 8.5t-4.5 8.5t-3.5 8.5t-3.5 8.5q-20 54 -20 94v131q0 26 27 54l4 4l3 3l4 4l3 3l10 8
q21 16 46 28q31 15 56 16q21 1 34 0q1 0 16 -2q5 -1 13 -4h1q15 -4 28 -10t26 -14t24 -18l1 -1q2 -2 4 -3q0 -1 1.5 -2t2.5 -2q36 -37 36 -66v-125q0 -19 -3 -38t-8 -36l-4 -15q-1 -1 -1.5 -3.5t-1.5 -3.5q-8 -26 -25 -51l-10 -14q-4 -5 -8 -9l-8 -8q-2 -1 -3 -2l-4 -4
q-1 -1 -2.5 -3t-3 -3.5t-2.5 -3.5t-2 -5q-4 -9 -4 -15zM510 742h2q8 0 15.5 -0.5t14.5 -1.5t14 -3q34 -8 54 -18q9 -5 15.5 -8.5t14.5 -8.5t15 -11q3 -2 5.5 -3.5t5 -4t5 -4.5t4.5 -4l12 -12q28 -29 39 -64q1 -1 1 -3l1 -2q3 -12 3 -21v-134l-4 -40q-3 -22 -5 -28
q0 -1 -4 -15q-1 -4 -2 -8.5t-3.5 -12t-3.5 -8.5q-9 -28 -24 -51l-8 -12l-3 -3q0 -1 -1 -2l-1 -1l-3 -4q-1 -2 -4 -6l-9 -10q-1 0 -2 -2l-3 -2l-5 -5q-4 -4 -5 -4q2 -1 9 -4l61 -29q1 -1 2.5 -2t3 -1.5t2.5 -1.5l35 -16l2 -2q4 -2 6 -2l18 -9q10 -5 30 -14.5t30 -14.5
q3 -1 12 -5.5t14 -7.5q9 -5 16 -10.5t12 -12.5l5 -8q1 -2 1.5 -5.5t0.5 -5.5v-75q0 -6 -1 -11t-3 -10q-13 -29 -44 -29h-682q-10 0 -20 5q-28 14 -28 47v71q0 8 3 14t10 12q8 9 21 17t26 14q4 1 10 4l8 4l35 17q2 1 9 4l61 30q2 0 4.5 1.5t4 2.5t4.5 2t5 2l8 4l44 21
q1 1 5 3l4 1q-1 1 -8 7.5t-9 9.5l-2 2q-6 6 -17 22q-4 5 -8 12q-1 1 -2.5 3.5t-2.5 4.5l-2 4q-11 21 -12 25q-1 1 -2 4l-1 3q-11 26 -18.5 59t-7.5 59v132q0 34 27 71q3 3 6 7q1 2 3 4l2 3l6 6l3 3l3 3l13 12q15 13 35 25l16 9q35 18 78 25q11 2 25 2z" />
  </font>
</defs>
</svg>
